<svg viewBox="0 0 256 256" fill="none" xmlns="http://www.w3.org/2000/svg" xmlns:xlink="http://www.w3.org/1999/xlink">
  <defs>
    <linearGradient id="bg" x1="0" y1="0" x2="256" y2="256" gradientUnits="userSpaceOnUse">
      <stop offset="0%" stop-color="#0d0d1a"/>
      <stop offset="100%" stop-color="#1a1a2e"/>
    </linearGradient>
    <linearGradient id="logo-grad" x1="273.93" y1="0" x2="273.93" y2="463.01" gradientUnits="userSpaceOnUse">
      <stop offset="0" stop-color="#00869f"/>
      <stop offset=".18" stop-color="#00839f"/>
      <stop offset=".3" stop-color="#007a9f"/>
      <stop offset=".4" stop-color="#006b9f"/>
      <stop offset=".49" stop-color="#00569f"/>
      <stop offset=".5" stop-color="#00549f"/>
      <stop offset=".62" stop-color="#00459f"/>
      <stop offset=".78" stop-color="#003c9f"/>
      <stop offset="1" stop-color="#003a9f"/>
    </linearGradient>
  </defs>

  <!-- Background -->
  <rect width="256" height="256" rx="48" fill="url(#bg)"/>

  <!-- Logo centered: original is 547.86 x 463.01, scale to fit ~210px wide with padding -->
  <g transform="translate(23, 30) scale(0.383)">
    <path d="M28.14,380.22l18.13-58.91c13.44-2.53,26.14-5.5,39.14-8.97l32.11-9.53c34.88,12.32,69.98,20.39,106.38,26.05l-1.78,6.16c-.96,3.32-.11,6.68,2.5,8.65s6.14,2.49,9.07.5l24.5-16.66-23.19,4.96,4.27-14.49c-34.22-4.63-67.77-11.02-100.52-21.75l-21.43-7.02c-23.19,7.47-46.34,13.71-70.22,18.84l-43.08,9.26c-1.46.31-3.33-1.44-3.8-2.52-.54-1.23-.18-4.02,1.4-5.01,25.89-16.35,50.94-33.82,74.46-53.71,17.18-14.53,32.19-31.22,44.36-50.09s21.25-40.82,25.98-63.66c3.29-15.85,6.76-31.08,11.38-46.54,7.46-24.98,18.99-50.66,39.51-67.62C218.28,10.82,244.66.83,271.95.04c18.89-.54,36.82,4.24,53.66,12.14,21.33,10.01,38.16,26.15,49.3,46.88,7.56,14.08,12.93,28.81,17.07,44.36,3.36,12.6,6.3,24.73,8.91,37.54,8.42,41.33,27.5,74.17,57.74,103.36,23.9,23.07,59.03,47.37,87.2,65.15,1.82,1.15,2.35,3.42,1.86,4.93-.65,1.98-2.56,2.9-4.77,2.69l-47.83-10.31c-22.03-4.75-43.53-10.6-65.17-17.63-39.38,14.16-79.82,23.61-121.3,28.82l4.39,14.52-24.06-5.51,25.32,17.12c2.63,1.78,5.84,1.71,8.32.34,2.64-1.46,4.07-4.11,4-7.49l-2.21-8.06c36.42-5.27,71.66-13.96,105.9-26.17,23.52,7.79,46.81,14.07,71.22,18.46l21.66,70.06-250.9,71.78L28.14,380.22ZM364.52,224.13c9.95-15.01,16.09-31.73,16.79-49.7.81-20.78-3.69-41.36-13.11-59.69-5.94-11.57-20.24-19.07-33.45-14.96l-32.32,10.06c-9.33,2.9-18.27,5.32-27.9,7.25-8.44-1.63-16.25-3.33-24.37-5.84l-31.7-9.8c-4.72-1.46-9.45-3.02-14.51-2.85-10.48.34-19.75,6.84-24.6,16.23-7.99,15.45-12.12,32.39-13.15,49.8-1.3,21.91,5.11,43.07,17.62,61.01,15.46,22.17,45.47,42.21,69.42,54.07,15.18,7.52,26.78,7.71,41.95-.05,24.15-12.36,53.99-32.36,69.34-55.52Z" fill="url(#logo-grad)"/>
  </g>
</svg>
