<?xml version="1.0" encoding="UTF-8"?><svg id="uuid-6278b09e-800b-4ac0-9463-2b5b2158f631" xmlns="http://www.w3.org/2000/svg" xmlns:xlink="http://www.w3.org/1999/xlink" viewBox="0 0 547.86 463.01"><defs><linearGradient id="uuid-1286ff83-d49a-46c6-b638-bdc01a0e970e" x1="179.13" y1="191.82" x2="368.36" y2="191.82" gradientUnits="userSpaceOnUse"><stop offset="0" stop-color="#00df5e"/><stop offset=".15" stop-color="#00dc5c"/><stop offset=".24" stop-color="#00d357"/><stop offset=".33" stop-color="#00c44f"/><stop offset=".4" stop-color="#00af44"/><stop offset=".47" stop-color="#009435"/><stop offset=".5" stop-color="#00842d"/><stop offset=".63" stop-color="#00932d"/><stop offset=".78" stop-color="#009c2d"/><stop offset="1" stop-color="#009f2d"/></linearGradient><linearGradient id="uuid-bd8e7641-6236-448c-83df-5ae62fe814f3" x1="273.93" y1="0" x2="273.93" y2="463.01" gradientUnits="userSpaceOnUse"><stop offset="0" stop-color="#00869f"/><stop offset=".18" stop-color="#00839f"/><stop offset=".3" stop-color="#007a9f"/><stop offset=".4" stop-color="#006b9f"/><stop offset=".49" stop-color="#00569f"/><stop offset=".5" stop-color="#00549f"/><stop offset=".62" stop-color="#00459f"/><stop offset=".78" stop-color="#003c9f"/><stop offset="1" stop-color="#003a9f"/></linearGradient></defs><path d="M368.07,163.41c-1.27-14.64-4.66-28.69-10.99-41.9-2.73-5.69-8.14-10.13-14.55-9.9-4.13.15-7.92,1.99-11.86,2.96l-26.9,8.65c-9.44,3.03-18.58,5.29-28.35,7.27-9.12-1.44-17.68-3.2-26.51-5.96l-32.42-10.14c-4.07-1.27-7.78-2.12-12.05-3.03-5.41.93-10.72,3.51-13.25,8.84-7.43,15.61-12.05,32.61-12.06,50.23,0,22.04,9.31,42.69,24.33,58.47,14.01,14.72,38.19,30.85,56.53,39.63,9.92,4.75,17.5,5.16,27.74.12,17.62-8.67,33.79-19.45,48.61-32.35,20.87-18.17,34.17-44.72,31.73-72.9ZM292.3,240.36l-36.87-.02c-2.25,0-5.57-2.28-5.72-4.9-.02-.37.02-.76.14-1.14l13.84-44.29c-9.12-4.3-14.27-13.15-13.94-22.62.05-1.36.2-2.73.48-4.1,2.08-10.34,11.19-18.55,22.26-19,11.59-.67,21.72,6.99,24.53,17.83.54,2.09.8,4.19.78,6.27-.05,8.98-5.16,17.39-13.98,21.58l13.84,44.13c.12.38.17.76.16,1.13-.04,2.58-2.95,4.76-5.51,5.13Z" style="fill:url(#uuid-1286ff83-d49a-46c6-b638-bdc01a0e970e);"/><path d="M545.82,309.47c-28.17-17.78-63.3-42.08-87.2-65.15-30.23-29.19-49.32-62.03-57.74-103.36-2.61-12.8-5.55-24.94-8.91-37.54-4.14-15.55-9.51-30.28-17.07-44.36-11.13-20.73-27.97-36.87-49.3-46.88C308.77,4.28,290.84-.5,271.95.04c-27.28.79-53.67,10.78-74.63,28.1-20.52,16.96-32.05,42.64-39.51,67.62-4.62,15.46-8.09,30.69-11.38,46.54-4.74,22.84-13.32,44.03-25.98,63.66-12.17,18.87-27.18,35.56-44.36,50.09-23.51,19.89-48.57,37.36-74.46,53.71-1.58,1-1.94,3.78-1.4,5.01.47,1.08,2.34,2.83,3.8,2.52l43.08-9.26c23.87-5.13,47.02-11.37,70.22-18.84l21.43,7.02c32.74,10.73,66.3,17.13,100.52,21.75l-4.27,14.49,23.19-4.96-24.5,16.66c-2.93,1.99-6.6,1.38-9.07-.5-2.61-1.98-3.45-5.33-2.5-8.65l1.78-6.16c-36.4-5.66-71.5-13.73-106.38-26.05l-32.11,9.53c-13,3.47-25.71,6.45-39.14,8.97l-18.13,58.91,244.09,82.79,250.9-71.78-21.66-70.06c-24.41-4.38-47.7-10.66-71.22-18.46-34.24,12.22-69.48,20.91-105.9,26.17l2.21,8.06c.07,3.39-1.36,6.03-4,7.49-2.48,1.37-5.69,1.43-8.32-.34l-25.32-17.12,24.06,5.51-4.39-14.52c41.48-5.21,81.92-14.66,121.3-28.82,21.64,7.03,43.14,12.89,65.17,17.63l47.83,10.31c2.21.22,4.12-.7,4.77-2.69.49-1.51-.03-3.78-1.86-4.93ZM381.31,174.44c-.7,17.97-6.84,34.68-16.79,49.7-15.34,23.16-45.19,43.16-69.34,55.52-15.17,7.77-26.76,7.57-41.95.05-23.95-11.86-53.96-31.9-69.42-54.07-12.51-17.94-18.92-39.1-17.62-61.01,1.04-17.41,5.17-34.35,13.15-49.8,4.85-9.39,14.12-15.89,24.6-16.23,5.07-.16,9.8,1.4,14.51,2.85l31.7,9.8c8.12,2.51,15.93,4.21,24.37,5.84,9.63-1.93,18.57-4.35,27.9-7.25l32.32-10.06c13.21-4.11,27.51,3.39,33.45,14.96,9.42,18.33,13.91,38.91,13.11,59.69Z" style="fill:url(#uuid-bd8e7641-6236-448c-83df-5ae62fe814f3);"/></svg>